<svg width="205" height="140" viewBox="0 0 205 140" fill="none" xmlns="http://www.w3.org/2000/svg">
<g filter="url(#filter0_d)">
<path d="M88.5 81.5L89.4998 81.5213L89.5 81.5107V81.5H88.5ZM99 113.5L99.3312 112.556L99 113.5ZM196.915 2.59623C196.692 2.09097 196.102 1.86214 195.596 2.08514L187.362 5.71903C186.857 5.94203 186.628 6.5324 186.851 7.03766C187.074 7.54293 187.665 7.77175 188.17 7.54876L195.489 4.31863L198.719 11.6375C198.942 12.1428 199.532 12.3716 200.038 12.1486C200.543 11.9256 200.772 11.3353 200.549 10.83L196.915 2.59623ZM4.94639 132.999C11.3297 133.341 19.7546 131.781 28.7551 128.93C37.7747 126.073 47.4508 121.895 56.3613 116.936C65.2664 111.981 73.4449 106.225 79.4432 100.198C85.4131 94.1987 89.3665 87.7862 89.4998 81.5213L87.5002 81.4787C87.3835 86.9638 83.8785 92.9055 78.0256 98.7868C72.201 104.64 64.1919 110.29 55.3887 115.189C46.5908 120.084 37.0378 124.208 28.1512 127.023C19.2454 129.844 11.0869 131.325 5.05361 131.001L4.94639 132.999ZM89.5 81.5C89.5 78.0454 88.922 75.5269 87.8611 73.9C87.3216 73.0729 86.6468 72.4618 85.8545 72.1024C85.0607 71.7423 84.2103 71.6629 83.3678 71.8025C81.714 72.0765 80.0791 73.189 78.6856 74.7411C77.2757 76.3115 76.0323 78.4181 75.1808 80.858C73.4755 85.7446 73.3135 92.0571 76.652 98.2186C79.9902 104.38 86.7576 110.262 98.6688 114.444L99.3312 112.556C87.7424 108.488 81.4473 102.871 78.4105 97.2658C75.374 91.6617 75.5245 85.9429 77.0692 81.517C77.8427 79.3006 78.9586 77.4307 80.1738 76.0772C81.4053 74.7056 82.661 73.9469 83.6947 73.7756C84.1959 73.6926 84.6385 73.747 85.0283 73.9238C85.4196 74.1012 85.819 74.4301 86.1858 74.9925C86.9373 76.145 87.5 78.2046 87.5 81.5H89.5ZM98.6688 114.444C108.602 117.931 118.721 115.234 128.451 108.761C138.172 102.294 147.625 91.9866 156.356 79.9826C173.826 55.9653 188.581 24.9082 196.932 3.3614L195.068 2.6386C186.752 24.0918 172.071 54.9772 154.739 78.8061C146.069 90.7252 136.78 100.817 127.343 107.095C117.916 113.367 108.461 115.762 99.3312 112.556L98.6688 114.444Z" fill="url(#paint0_linear)"/>
</g>
<defs>
<filter id="filter0_d" x="0.946289" y="-0.000244141" width="203.688" height="139.046" filterUnits="userSpaceOnUse" color-interpolation-filters="sRGB">
<feFlood flood-opacity="0" result="BackgroundImageFix"/>
<feColorMatrix in="SourceAlpha" type="matrix" values="0 0 0 0 0 0 0 0 0 0 0 0 0 0 0 0 0 0 127 0"/>
<feOffset dy="2"/>
<feGaussianBlur stdDeviation="2"/>
<feColorMatrix type="matrix" values="0 0 0 0 0.400885 0 0 0 0 0.0559375 0 0 0 0 0.745833 0 0 0 0.24 0"/>
<feBlend mode="normal" in2="BackgroundImageFix" result="effect1_dropShadow"/>
<feBlend mode="normal" in="SourceGraphic" in2="effect1_dropShadow" result="shape"/>
</filter>
<linearGradient id="paint0_linear" x1="50.4945" y1="95.1063" x2="190.255" y2="99.2561" gradientUnits="userSpaceOnUse">
<stop stop-color="#3E3BAB"/>
<stop offset="1" stop-color="#9D236C"/>
</linearGradient>
</defs>
</svg>
